HIERARCHY
ROOT hip
{
	OFFSET 0.000000 0.000000 0.000000 
	CHANNELS 6 Xposition Yposition Zposition Xrotation Zrotation Yrotation
	JOINT abdomen
	{
		OFFSET 0.000000 3.402643 0.000000 
		CHANNELS 3 Xrotation Zrotation Yrotation
		JOINT chest
		{
			OFFSET 0.000000 8.438565 -0.680529 
			CHANNELS 3 Xrotation Zrotation Yrotation
			JOINT neck
			{
				OFFSET 0.000000 10.207942 -0.272212 
				CHANNELS 3 Xrotation Zrotation Yrotation
				JOINT head
				{
					OFFSET 0.000000 3.130431 0.000000 
					CHANNELS 3 Xrotation Zrotation Yrotation
					End Site
					{
						OFFSET 0.000000 3.130435 0.000000 
					}
				}
			}
			JOINT lCollar
			{
				OFFSET 3.470700 6.669187 -0.816635 
				CHANNELS 3 Yrotation Zrotation Xrotation
				JOINT lShldr
				{
					OFFSET 3.198488 0.000000 0.000000 
					CHANNELS 3 Zrotation Yrotation Xrotation
					JOINT lForeArm
					{
						OFFSET 10.139888 0.000000 0.000000 
						CHANNELS 3 Yrotation Zrotation Xrotation
						JOINT lHand
						{
							OFFSET 8.370511 0.000000 0.000000 
							CHANNELS 3 Zrotation Yrotation Xrotation
							End Site
							{
								OFFSET 4.083176 0.000000 0.000000 
							}
						}
					}
				}
			}
			JOINT rCollar
			{
				OFFSET -3.470700 6.669187 -0.816635 
				CHANNELS 3 Yrotation Zrotation Xrotation
				JOINT rShldr
				{
					OFFSET -3.198488 0.000000 0.000000 
					CHANNELS 3 Zrotation Yrotation Xrotation
					JOINT rForeArm
					{
						OFFSET -10.139888 0.000000 0.000000 
						CHANNELS 3 Yrotation Zrotation Xrotation
						JOINT rHand
						{
							OFFSET -8.370511 0.000000 0.000000 
							CHANNELS 3 Zrotation Yrotation Xrotation
							End Site
							{
								OFFSET -4.083176 0.000000 0.000000 
							}
						}
					}
				}
			}
		}
	}
	JOINT lThigh
	{
		OFFSET 5.308129 -1.633274 1.361059 
		CHANNELS 3 Xrotation Zrotation Yrotation
		JOINT lShin
		{
			OFFSET -2.041588 -20.007561 0.000000 
			CHANNELS 3 Xrotation Zrotation Yrotation
			JOINT lFoot
			{
				OFFSET 0.000000 -19.190928 -1.224953 
				CHANNELS 3 Xrotation Yrotation Zrotation
				End Site
				{
					OFFSET 0.000000 -2.449906 4.627600 
				}
			}
		}
	}
	JOINT rThigh
	{
		OFFSET -5.308129 -1.633274 1.361059 
		CHANNELS 3 Xrotation Zrotation Yrotation
		JOINT rShin
		{
			OFFSET 2.041588 -20.007561 0.000000 
			CHANNELS 3 Xrotation Zrotation Yrotation
			JOINT rFoot
			{
				OFFSET 0.000000 -19.190928 -1.224953 
				CHANNELS 3 Xrotation Yrotation Zrotation
				End Site
				{
					OFFSET 0.000000 -2.449906 4.627600 
				}
			}
		}
	}
}
MOTION
Frames: 10
Frame Time: 0.033333
-1.172230 52.774288 1.580006 4.931641 3.671875 -36.415390 21.025391 -16.064453 -3.544922 -18.310547 6.132813 2.880859 51.054684 8.105469 2.470703 -38.300781 -0.175781 -6.630889 1.992188 -2.001953 0.000341 -85.478516 32.392578 -12.592422 -58.310547 -1.250000 -2.158203 31.513670 70.927734 31.884768 -2.001953 1.992188 0.000000 79.169922 -15.195313 -10.197871 55.986328 1.367188 -2.119141 -2.128906 -23.095703 6.279297 -24.648193 11.142521 12.742116 32.822056 -4.371576 -2.904197 -1.621543 9.335245 0.980798 2.534384 2.444212 -15.113286 10.174643 5.317279 0.909537 -1.992893 -12.564259 3.575093 
-2.344460 52.341000 3.159989 5.634766 3.671875 -35.859375 20.869139 -16.484373 -3.515625 -18.300781 6.298829 3.085938 51.054684 8.105469 2.470703 -36.142582 0.136719 -7.207031 1.992188 -2.001953 0.000341 -88.066406 35.439453 -17.943556 -58.310539 -1.240234 -2.157992 30.771484 71.923828 31.044918 -2.001953 1.992188 0.000000 79.843750 -14.492187 -11.604006 57.216797 1.347656 -2.167969 -3.466797 -21.132811 6.152344 -25.623781 8.632232 13.141322 24.580790 -4.769876 -2.302439 -6.524844 8.360700 1.770230 3.297081 2.671451 -15.753297 12.854153 5.248294 1.121379 -3.937091 -12.329438 3.895166 
-3.508102 51.915588 4.863142 6.337891 3.662110 -35.448597 20.644531 -16.835938 -3.235250 -18.291016 6.464844 3.125000 51.054684 8.105469 2.470703 -33.837891 0.449219 -7.734375 1.992188 -2.001953 0.000341 -89.580078 37.343754 -21.126886 -58.320316 -1.552734 -2.275390 31.386717 72.646484 31.748045 -2.001953 1.992188 0.000000 81.025391 -13.945313 -13.849478 57.568359 1.337891 -2.187500 -4.365234 -19.775393 6.220703 -26.511364 6.522549 13.148469 18.043077 -4.974058 -1.931851 -9.543470 7.229696 2.455881 3.831698 2.796350 -16.431026 15.836236 5.186887 1.531692 -4.817664 -11.768082 4.031551 
-4.664038 51.474411 6.693910 6.503907 3.662110 -34.921253 20.263672 -17.343750 -3.010724 -18.105469 6.621094 3.349610 51.054684 8.105469 2.470703 -31.669924 0.917969 -8.388672 1.992188 -2.001953 0.000341 -89.248047 38.652344 -20.511478 -58.310547 -1.376953 -2.207040 33.789063 73.085938 35.361332 -2.001953 1.992188 0.000000 82.148438 -14.267578 -17.014122 57.578125 1.523438 -2.256119 -5.283203 -19.599609 7.096335 -27.003942 4.713709 11.746763 13.975949 -5.147344 -1.420024 -7.833970 6.320643 2.779239 3.905783 2.167303 -17.346174 20.063766 5.023707 1.718593 -4.237483 -11.324135 3.615774 
-5.819048 51.064747 8.567411 6.337891 3.837891 -34.550129 20.078125 -17.861328 -2.792968 -18.095703 6.972656 3.417969 51.054684 8.105469 2.470703 -29.511721 1.201172 -8.876953 1.992188 -2.001953 0.000341 -87.021484 39.082035 -17.001955 -58.134766 -1.240234 -2.158203 36.718754 73.378906 39.599197 -2.001953 1.992188 0.000000 83.564453 -14.746093 -20.627481 57.050781 1.494141 -2.216797 -6.640625 -19.443361 8.121748 -26.894848 3.066981 10.167276 11.351133 -5.163871 -1.211656 -3.839885 5.883624 3.392216 3.970282 1.024372 -18.494898 24.866806 4.828166 2.104330 -1.535680 -10.623187 2.930361 
-6.973262 50.599945 10.472778 5.449219 4.023438 -34.598923 19.892578 -18.105469 -2.675781 -18.085936 7.148438 3.634028 51.054684 8.105469 2.470703 -27.187500 1.484375 -9.120840 1.992188 -2.001953 0.000341 -85.742188 38.769531 -14.593494 -57.958984 -1.435547 -2.216552 40.996094 73.291016 44.746094 -2.001953 1.992188 0.000000 84.951172 -15.205078 -23.352171 56.513676 1.386719 -2.148674 -6.875000 -19.804688 8.710938 -25.988340 1.795120 8.846928 11.000340 -5.225316 -1.167601 -2.834165 5.407815 3.587280 5.520466 -0.282955 -18.574835 27.673288 4.689459 2.511588 0.922065 -10.819335 3.062040 
-8.126802 50.143013 12.399242 3.867188 4.541016 -34.842976 19.687502 -18.369141 -2.551905 -18.076172 7.490234 3.710938 51.054684 8.105469 2.470703 -25.234375 1.591797 -9.452853 1.992188 -2.001953 0.000341 -85.537109 38.261719 -13.470513 -57.958984 -1.435547 -2.226318 43.076172 73.203125 46.630444 -2.001953 1.992188 0.000000 86.074219 -16.337891 -24.914854 55.810543 1.406250 -2.128906 -6.845703 -20.019531 9.303300 -25.377941 0.790783 8.178860 15.581314 -5.080419 -1.526917 -2.678880 7.246708 3.252585 8.306196 -0.722908 -17.401398 27.136503 4.672665 2.298253 4.111380 -14.894684 -2.990420 
-9.279868 50.048473 14.335890 2.109375 5.087891 -34.960075 19.726563 -18.291018 -2.717909 -18.056641 7.666016 3.751302 51.054684 8.105469 2.470703 -23.330078 1.406250 -9.599608 1.992188 -2.001953 0.000341 -86.513672 37.207031 -13.499951 -58.144531 -1.562500 -2.275391 44.707031 73.212891 47.499996 -2.001953 1.992188 0.000000 86.406250 -17.949221 -23.997147 55.107422 1.435547 -2.099609 -5.419921 -21.445313 9.332368 -22.956469 -0.078030 7.922376 18.222342 -5.566893 -1.738320 -2.337656 8.993469 2.797579 12.194023 -0.996651 -15.592257 24.533764 4.820308 2.250079 9.530891 -20.182318 -7.830674 
-10.432554 50.725983 16.271729 0.527344 5.410149 -35.096775 19.775393 -18.115236 -3.030380 -17.851563 7.988281 3.673232 51.054684 8.105469 2.470703 -21.416014 0.888672 -9.550630 1.992188 -2.001953 0.000341 -87.294922 35.605469 -13.431813 -57.958984 -1.435547 -2.216552 43.867188 72.675781 45.917973 -2.001953 1.992188 0.000000 85.644531 -20.468750 -21.136227 54.238281 1.611328 -2.294922 -2.949219 -23.632813 9.195304 -19.790060 -1.465057 7.897657 18.595158 -5.548829 -1.769390 -1.251186 10.168998 2.452827 13.310169 -2.441676 -14.615717 25.008709 4.663515 2.276805 21.737965 -20.963100 -9.093197 
-11.585053 51.371986 18.196110 -0.361328 5.429688 -34.687500 20.185547 -17.509768 -3.427734 -17.832031 8.330079 3.575634 51.054684 8.105469 2.470703 -19.931641 -0.048828 -9.277344 1.992188 -2.001953 0.000341 -87.910156 33.320313 -14.545416 -57.607422 -1.259766 -2.138457 40.742184 71.806641 41.650391 -2.001953 1.992188 0.000000 84.648438 -22.792969 -17.747923 53.007813 1.826172 -2.128895 -0.722656 -25.273436 8.941145 -16.370466 -2.431649 7.528548 18.059185 -5.636950 -1.705231 0.134551 11.066758 2.535065 8.430376 -4.118954 -14.976575 31.716240 4.293921 3.114072 25.265858 -24.777477 -8.771294 
